# xmcd
#
# Track frame offsets:
#	150
#	13799
#	29997
#	44205
#	65289
#	83590
#	98947
#	115462
#	133249
#	145609
#	163839
#	182014
#	202904
#	222712
#	238754
#	255546
#	274463
#	290955
#	310892
#	329826
#
# Disc length: 4689 seconds
#
# Revision: 0
# Processed by: cddbd v1.5.2PL0 Copyright (c) Steve Scherf et al.
# Submitted via: EasyCDDAExtractor 11.6.0.1
#
DISCID=4d124f14
DTITLE=Various Artist - Multitubes Disco Cd3
DYEAR=2008
DGENRE=Disco
TTITLE0=Musique - Keep On Jumpin'
TTITLE1=Mc Fadden and Whitehead - Ain't No Stoppin' Us Now
TTITLE2=Jazzy Dee - Get On Up
TTITLE3=Cloud One - Disco Juice
TTITLE4=Sticky Fingers - Wastin' My Love
TTITLE5=George Mc Crae - Rock Your Baby
TTITLE6=Double Exposure - Everyman
TTITLE7=Bahannon - Let's Start Ii Dance Again
TTITLE8=First Choice - Dr. Love
TTITLE9=Chic - Dance Dance Dance (Live)
TTITLE10=Machine - There But For The Grace Of God Go I
TTITLE11=The Jones Girls - Nights Over Egypt 
TTITLE12=The O'jays - Message In Our Music
TTITLE13=Secret Weapon - Must Be The Music
TTITLE14=Tracy Weber - Sure Shot
TTITLE15=Imagination - Just An Illusion
TTITLE16=Patrick Cowley - Menergy
TTITLE17=Bunny Singler - By The Way You Dance
TTITLE18=Tavares - Heaven Must Be Missing An Angel
TTITLE19=Dimitri From Paris With Los Amigos Invisibles - Paris-Brooklyn
EXTD=
EXTT0=
EXTT1=
EXTT2=
EXTT3=
EXTT4=
EXTT5=
EXTT6=
EXTT7=
EXTT8=
EXTT9=
EXTT10=
EXTT11=
EXTT12=
EXTT13=
EXTT14=
EXTT15=
EXTT16=
EXTT17=
EXTT18=
EXTT19=
PLAYORDER=
